<?xml version="1.0" encoding="UTF-8" standalone="no"?>
<svg
   xmlns:dc="http://purl.org/dc/elements/1.1/"
   xmlns:cc="http://creativecommons.org/ns#"
   xmlns:rdf="http://www.w3.org/1999/02/22-rdf-syntax-ns#"
   xmlns:svg="http://www.w3.org/2000/svg"
   xmlns="http://www.w3.org/2000/svg"
   xmlns:sodipodi="http://sodipodi.sourceforge.net/DTD/sodipodi-0.dtd"
   xmlns:inkscape="http://www.inkscape.org/namespaces/inkscape"
   version="1.1"
   viewBox="0 0 91.5 97.6"
   xml:space="preserve"
   id="svg45"
   sodipodi:docname="gear-red.svg"
   inkscape:version="1.0.2-2 (e86c870879, 2021-01-15)"><metadata
   id="metadata51"><rdf:RDF><cc:Work
       rdf:about=""><dc:format>image/svg+xml</dc:format><dc:type
         rdf:resource="http://purl.org/dc/dcmitype/StillImage" /><dc:title></dc:title></cc:Work></rdf:RDF></metadata><defs
   id="defs49" /><sodipodi:namedview
   pagecolor="#ffffff"
   bordercolor="#666666"
   borderopacity="1"
   objecttolerance="10"
   gridtolerance="10"
   guidetolerance="10"
   inkscape:pageopacity="0"
   inkscape:pageshadow="2"
   inkscape:window-width="1920"
   inkscape:window-height="1017"
   id="namedview47"
   showgrid="false"
   inkscape:zoom="8.7090165"
   inkscape:cx="53.861848"
   inkscape:cy="44.159801"
   inkscape:window-x="-8"
   inkscape:window-y="-8"
   inkscape:window-maximized="1"
   inkscape:current-layer="svg45" />
	<path
   d="m86.6 10.3v-0.1c-1.5-2-3.3-3.7-5.4-5.3v0.1c-1.7 1.3-3.4 2.7-5 4.1-0.7-0.4-1.3-0.7-1.9-1-0.8-0.4-1.6-0.8-2.5-1-0.3-0.1-0.6-0.2-0.9-0.2-0.2-2.2-0.4-4.4-0.7-6.6-1-0.2-2-0.2-3.1-0.3h-1.6c-1 0.1-1.9 0.1-2.8 0.3-0.3 2.1-0.5 4.3-0.6 6.5-0.4 0-0.7 0.1-1.1 0.2-0.1 0-0.2 0-0.3 0.1-0.8 0.2-1.6 0.6-2.4 1-0.7 0.3-1.3 0.6-1.9 1-1.7-1.4-3.3-2.7-5-4.1l-0.1-0.1c-0.4 0.3-0.8 0.6-1.1 0.9-0.7 0.5-1.3 1.1-1.8 1.7-0.9 0.8-1.6 1.8-2.4 2.8h0.1c1.3 1.7 2.7 3.3 4.1 5-0.4 0.6-0.8 1.3-1.1 1.9-0.4 0.8-0.7 1.7-0.9 2.5-0.2 0.4-0.3 0.8-0.3 1.1-2.2 0.2-4.4 0.4-6.5 0.7-0.2 1-0.3 2-0.3 3.1 0 1.5 0.1 3 0.4 4.4 2.1 0.2 4.2 0.4 6.4 0.6 0 0.4 0.1 0.8 0.3 1.1 0.2 0.9 0.5 1.7 0.9 2.6 0.4 0.7 0.7 1.4 1.2 2-1.4 1.7-2.8 3.3-4.1 5 1.5 2.1 3.3 3.9 5.4 5.4v-0.1c1.6-1.3 3.3-2.7 4.9-4.1h0.1c0.5 0.3 1.1 0.6 1.6 0.9 0.9 0.4 1.9 0.8 2.8 1 0.4 0.1 0.7 0.2 1 0.3 0.2 2.1 0.4 4.3 0.7 6.5 0.9 0.1 1.8 0.2 2.8 0.2h1.5c1.1 0 2.2-0.1 3.3-0.3 0.2-2.1 0.4-4.3 0.6-6.5 0.3-0.1 0.6-0.2 0.9-0.3 0.9-0.2 1.7-0.5 2.5-0.9 0.7-0.3 1.4-0.7 2.1-1.2 0 0.1 0 0.1 0.1 0.1 1.6 1.4 3.3 2.8 5 4.1 0.3-0.2 0.6-0.4 1-0.7 0.6-0.5 1.2-1.1 1.7-1.7 0.9-0.9 1.8-1.9 2.6-3-1.4-1.7-2.8-3.4-4.2-5v-0.1c0.3-0.5 0.6-1.1 0.9-1.7 0.3-0.8 0.7-1.6 0.9-2.4 0-0.1 0-0.2 0.1-0.2 0-0.4 0.1-0.7 0.2-0.9 2.2-0.2 4.4-0.4 6.5-0.6 0.2-1 0.2-2 0.3-3v-1.7c-0.1-1-0.1-2-0.3-3-2.1-0.2-4.3-0.4-6.5-0.6-0.1-0.3-0.2-0.6-0.2-0.9-0.3-0.9-0.6-1.8-1-2.7-0.3-0.6-0.7-1.3-1-1.9 1.3-1.6 2.7-3.3 4.1-5zm-26.7 8.3c1.8-1.9 4-2.8 6.5-2.7 2.6-0.1 4.7 0.8 6.6 2.7 1.8 1.8 2.7 4 2.7 6.5 0 2.6-0.9 4.7-2.7 6.6-1.9 1.8-4 2.7-6.6 2.7-2.5 0-4.7-0.9-6.5-2.7-1.8-1.9-2.7-4-2.7-6.6 0-2.5 0.9-4.7 2.7-6.5z"
   id="path37" />
	<path
   d="m66.5 17.2c-2.2 0-4 0.8-5.6 2.3-1.5 1.6-2.3 3.4-2.3 5.6s0.8 4 2.3 5.6c1.6 1.6 3.4 2.4 5.6 2.4s4-0.8 5.6-2.4 2.3-3.4 2.3-5.6-0.7-4-2.3-5.6c-1.6-1.5-3.4-2.3-5.6-2.3zm-4.2 3.7c1.2-1.1 2.6-1.7 4.2-1.7s3 0.6 4.2 1.7c1.2 1.2 1.7 2.5 1.7 4.2s-0.5 3.1-1.7 4.2c-1.2 1.2-2.6 1.8-4.2 1.8s-3-0.6-4.2-1.8c-1.1-1.1-1.7-2.5-1.7-4.2 0-1.6 0.6-3 1.7-4.2z"
   id="path39" />
	<path
   d="m40.8 33.6c-0.4-0.2-0.7-0.3-1-0.3-1.2-0.3-2.4-0.5-3.6-0.7-1.1 2.7-2 5.3-2.9 7.9h-1.8c-1.2 0.1-2.3 0.2-3.4 0.4-0.9 0.1-1.8 0.4-2.7 0.7-1.6-2.3-3.3-4.6-4.9-6.8l-0.1-0.1c-0.6 0.2-1.2 0.4-1.7 0.7-1 0.4-1.9 0.9-2.8 1.5-1.4 0.7-2.7 1.6-3.9 2.7v0.1c1.2 2.5 2.3 5 3.5 7.5-0.7 0.7-1.3 1.3-1.9 2.1-0.8 0.8-1.5 1.8-2.1 2.8-0.3 0.4-0.5 0.8-0.7 1.3-2.8-0.5-5.6-1-8.4-1.4-0.5 1.2-1 2.4-1.4 3.7-0.4 2-0.8 3.9-1 5.8l7.8 3v1.4c0 1.1 0.1 2.3 0.4 3.5 0.1 1 0.4 2 0.7 3-2.3 1.6-4.5 3.2-6.8 4.9 1.2 3 2.9 5.8 4.9 8.4h0.1c2.5-1.2 5-2.3 7.6-3.5 0.6 0.6 1.2 1.1 1.8 1.7 0.9 0.8 2 1.5 3.2 2.2 0.3 0.2 0.7 0.4 1.1 0.7-0.5 2.7-0.9 5.5-1.3 8.3 1.1 0.5 2.2 0.9 3.4 1.2 0.3 0.1 0.9 0.3 1.9 0.5 1.4 0.4 2.8 0.6 4.1 0.8 1.1-2.7 2.1-5.3 3-8h1.3c1.2 0 2.3-0.1 3.4-0.3 1-0.2 2-0.5 3-0.8 0 0 0 0.1 0.1 0.1 1.6 2.3 3.3 4.6 4.9 6.9 0.5-0.3 1-0.5 1.4-0.7 1-0.4 1.9-0.9 2.8-1.4 1.5-0.9 2.9-1.9 4.2-3-1.1-2.6-2.3-5.1-3.5-7.7 0.6-0.6 1.1-1.2 1.7-1.8 0.7-0.9 1.4-1.9 2-2.8 0-0.1 0.1-0.2 0.1-0.3 0.2-0.3 0.4-0.7 0.6-1 2.8 0.5 5.6 0.9 8.4 1.4 0.5-1.2 0.9-2.4 1.3-3.7 0.1-0.3 0.2-0.6 0.3-1 0.1-0.3 0.1-0.6 0.3-1 0.2-1.3 0.5-2.6 0.6-3.8-2.6-1.1-5.3-2-7.9-3v-1.2c0-1.2-0.1-2.5-0.4-3.7-0.1-0.9-0.4-1.8-0.6-2.7 2.3-1.6 4.6-3.3 6.8-5h0.1c-1.2-3-2.8-5.8-5-8.4-2.6 1.1-5.1 2.3-7.6 3.5-0.7-0.7-1.4-1.4-2.1-2-0.9-0.7-1.8-1.4-2.8-1.9-0.3-0.3-0.7-0.5-1-0.7 0.4-2.8 0.9-5.6 1.3-8.4-1.2-0.5-2.5-1-3.8-1.4-0.3-0.1-0.7-0.2-1-0.2zm-18.6 37.4c-1.7-2.9-2.1-5.9-1.2-9.1 0.8-3.2 2.7-5.6 5.6-7.3 2.8-1.6 5.9-2 9-1.2 3.2 0.9 5.7 2.7 7.3 5.6 1.7 2.9 2.1 5.9 1.2 9.1-0.8 3.2-2.7 5.6-5.5 7.2-3 1.7-6 2.1-9.1 1.2-3.2-0.8-5.7-2.7-7.3-5.5z"
   id="path41" />
	<path
   d="m22.8 62.4c-0.8 2.7-0.5 5.3 0.9 7.7h0.1c1.4 2.5 3.5 4 6.2 4.8 2.7 0.7 5.3 0.4 7.8-1 2.5-1.5 4-3.5 4.8-6.2v-0.1c0.7-2.7 0.3-5.3-1.1-7.7-1.4-2.5-3.5-4.1-6.2-4.8-2.7-0.8-5.4-0.4-7.8 1-2.5 1.4-4 3.5-4.7 6.3zm6-4c1.9-1.1 3.8-1.4 5.8-0.8 2 0.5 3.6 1.7 4.7 3.6 1.1 1.8 1.3 3.8 0.8 5.8-0.6 2-1.8 3.6-3.6 4.6v0.1c-1.9 1-3.8 1.3-5.8 0.7-2.1-0.5-3.6-1.7-4.7-3.6-1-1.8-1.3-3.7-0.8-5.8 0.6-2 1.8-3.5 3.6-4.6z"
   id="path43" />
<path
   style="fill:#800000;stroke-width:0.114824"
   d="m 27.208279,97.264151 c -2.377641,-0.436117 -5.628998,-1.343734 -7.116676,-1.986623 l -0.528833,-0.228531 0.3368,-2.27895 c 0.18524,-1.253424 0.478682,-3.121113 0.652093,-4.150419 l 0.315293,-1.871467 -1.041848,-0.643172 c -1.916193,-1.18294 -2.723675,-1.773394 -3.910828,-2.859714 -0.648467,-0.593387 -1.207169,-1.078886 -1.241561,-1.078886 -0.05615,0 -3.896398,1.743791 -6.5680467,2.982439 L 7.0712606,85.627945 6.7507609,85.246344 C 6.2001728,84.590788 4.5500788,82.051189 3.8169967,80.731095 3.1751911,79.575366 2.1377019,77.345835 2.2159145,77.29042 2.2339313,77.277655 3.3854253,76.442847 4.77479,75.435292 6.1641547,74.427737 7.6626017,73.351294 8.1046723,73.043197 8.5467429,72.7351 8.9250167,72.470728 8.9452809,72.455703 8.9655449,72.44068 8.8777836,72.074662 8.7502558,71.642329 8.3319185,70.224126 7.928212,67.69312 7.8549426,66.029235 L 7.7839592,64.417257 4.0692164,62.993309 C 2.026108,62.210137 0.29290454,61.531308 0.2176532,61.4848 0.11190801,61.41945 0.11310728,61.157085 0.2229332,60.329667 0.45772,58.560808 1.0217892,55.862526 1.3723565,54.831284 c 0.407647,-1.199149 1.0563844,-2.74876 1.1505886,-2.748362 0.1911245,8.04e-4 4.0026053,0.62236 5.9878027,0.97645 2.6018472,0.464081 2.4071012,0.444036 2.4071012,0.247756 0,-0.08436 0.348776,-0.701028 0.775059,-1.370376 0.791099,-1.242187 1.819419,-2.529339 3.100235,-3.880582 0.394706,-0.41641 0.717647,-0.807759 0.717647,-0.869668 0,-0.06191 -0.779216,-1.787702 -1.731591,-3.835097 l -1.731591,-3.722536 0.325003,-0.269558 c 1.823254,-1.512207 5.098166,-3.457298 7.210167,-4.282384 l 0.799516,-0.312344 0.814111,1.109374 c 0.447762,0.610155 1.554853,2.142785 2.460206,3.405844 0.905351,1.263059 1.664391,2.317643 1.686754,2.343519 0.02236,0.02588 0.493134,-0.09001 1.046159,-0.257535 1.360578,-0.412142 3.064371,-0.657891 5.185122,-0.747886 l 1.768328,-0.07504 0.899535,-2.526118 c 0.828594,-2.326895 1.919121,-5.223089 2.004889,-5.324529 0.04845,-0.0573 3.642991,0.648339 4.294921,0.843131 0.284188,0.08491 0.981741,0.293829 1.550117,0.464256 1.895839,0.568465 3.387295,1.198538 3.387295,1.43098 0,0.11528 -0.283071,2.007067 -0.629046,4.203972 -0.345976,2.196905 -0.617247,4.003424 -0.602824,4.014487 0.01442,0.01106 0.775446,0.511884 1.691164,1.112934 1.06585,0.699593 2.134575,1.526832 2.970108,2.298989 l 1.305167,1.206171 1.565421,-0.746026 c 2.400395,-1.143945 5.511263,-2.549258 5.808056,-2.623748 0.231551,-0.05812 0.385176,0.09175 1.182161,1.15321 0.503815,0.671004 1.310043,1.88039 1.791618,2.687528 0.892017,1.49505 2.162927,4.135364 2.066112,4.292346 -0.0787,0.127605 -3.901216,2.988043 -5.468776,4.092352 -0.988523,0.696391 -1.33824,1.004475 -1.297407,1.142955 0.522375,1.771555 0.887419,3.97527 0.970442,5.858411 l 0.07274,1.650007 2.29647,0.848338 c 1.263059,0.466586 3.029118,1.134629 3.924576,1.484542 l 1.628107,0.636204 -0.06328,0.42498 c -0.413036,2.77376 -0.747575,4.159266 -1.641342,6.797686 -0.696245,2.05533 -0.766311,2.195033 -1.065808,2.125097 -0.401089,-0.09366 -7.867914,-1.321332 -8.036477,-1.321332 -0.08279,0 -0.303732,0.293559 -0.490975,0.652354 -0.701617,1.344428 -2.358356,3.576463 -3.432729,4.62473 -0.28856,0.281548 -0.524656,0.575452 -0.524656,0.653119 0,0.07767 0.613955,1.474932 1.364342,3.105034 0.750389,1.630102 1.520739,3.33278 1.711891,3.783728 l 0.347547,0.819906 -1.22389,0.919505 c -0.673139,0.505728 -1.637255,1.189008 -2.142478,1.5184 -1.145644,0.74693 -4.877776,2.576012 -4.993929,2.447478 -0.04726,-0.05229 -1.13222,-1.56769 -2.411032,-3.367548 -1.278813,-1.799859 -2.36943,-3.320388 -2.423593,-3.378952 -0.05974,-0.06459 -0.539902,0.0156 -1.22061,0.203873 -2.010281,0.555998 -2.698819,0.66294 -4.69426,0.729102 l -1.9646,0.06514 -0.586864,1.679452 c -0.883353,2.527929 -2.358069,6.249422 -2.488171,6.278985 -0.06315,0.01435 -0.767236,-0.09358 -1.564628,-0.239839 z m 8.453408,-20.66293 c 4.391613,-1.301596 7.407786,-4.310769 8.486147,-8.466454 0.857519,-3.304622 0.486065,-6.239536 -1.149983,-9.086189 -1.658884,-2.886387 -3.925467,-4.664371 -7.220709,-5.664163 -0.960912,-0.291545 -1.182438,-0.313972 -3.157647,-0.319666 -1.872226,-0.0054 -2.240023,0.02531 -3.100235,0.258889 -3.585443,0.973557 -6.816192,3.762058 -8.042271,6.941386 -1.617055,4.193163 -1.25534,7.88843 1.124877,11.491698 1.589153,2.405722 3.800854,3.95137 6.8518,4.788386 1.449613,0.397694 1.865289,0.444556 3.567712,0.402202 1.328099,-0.03304 1.787053,-0.0932 2.640309,-0.346089 z"
   id="path65" /><path
   style="fill:#800000;stroke-width:0.114824"
   d="M 30.610084,74.97992 C 28.04537,74.413961 25.613697,72.774003 24.255192,70.694081 24.024717,70.341215 23.798923,70.024657 23.753427,69.99062 23.707937,69.95658 23.48857,69.534518 23.265956,69.0527 c -0.769029,-1.664462 -1.013822,-3.466176 -0.708714,-5.216244 0.674696,-3.869987 2.443303,-6.420962 5.506722,-7.942699 2.441938,-1.213019 4.434252,-1.428192 7.058966,-0.762378 2.723956,0.690988 4.822106,2.26823 6.254682,4.701834 0.987771,1.677986 1.462157,3.369026 1.459669,5.203271 -0.0061,4.489394 -2.72984,8.193093 -7.11755,9.678298 -0.986206,0.333823 -1.244999,0.372749 -2.698353,0.40587 -1.14506,0.0261 -1.838764,-0.01439 -2.411294,-0.140732 z m 3.856927,-2.448476 c 0.946137,-0.24399 1.806635,-0.589618 2.130431,-0.85571 0.117212,-0.09633 0.533553,-0.413032 0.925203,-0.703796 1.705635,-1.266275 2.90485,-3.737739 2.90485,-5.986608 0,-2.741858 -1.782264,-5.626356 -4.24678,-6.873185 -1.482172,-0.74985 -3.635191,-1.0436 -5.111337,-0.697374 -2.288728,0.536816 -4.387062,2.190773 -5.447205,4.293616 -0.690615,1.369868 -0.885371,3.490144 -0.469826,5.11491 0.546533,2.136926 2.150417,4.205563 3.91414,5.048334 1.766015,0.843865 3.747873,1.086 5.400524,0.659813 z"
   id="path67" /><path
   style="fill:#800000;stroke-width:0.114824"
   d="M 63.642483,50.249089 C 63.180185,50.196109 62.784705,50.13486 62.76364,50.112985 62.7232,50.070995 62.301574,46.273101 62.185593,44.906154 62.071475,43.561178 62.129683,43.641925 61.068065,43.355895 59.816359,43.018651 58.611577,42.534256 57.448318,41.90054 l -0.949058,-0.517025 -0.773294,0.679378 c -0.425313,0.373656 -1.537703,1.312801 -2.471981,2.086986 -1.956555,1.621291 -1.619852,1.585492 -3.095729,0.329159 -1.106388,-0.941807 -2.255494,-2.126434 -3.140159,-3.237226 l -0.723615,-0.908577 0.251781,-0.354482 c 0.13848,-0.194965 1.040244,-1.303246 2.003919,-2.462848 0.963675,-1.159603 1.752137,-2.159202 1.752137,-2.221333 0,-0.06213 -0.09619,-0.25012 -0.213751,-0.417751 -0.544599,-0.776535 -1.191733,-2.148026 -1.617126,-3.427226 -0.256077,-0.770048 -0.465594,-1.502249 -0.465594,-1.627112 0,-0.293704 -0.03132,-0.299103 -3.502117,-0.603726 -1.578824,-0.13857 -2.903854,-0.302539 -2.944511,-0.364377 -0.09323,-0.141805 -0.297746,-1.867552 -0.390595,-3.29599 -0.06392,-0.983436 0.07029,-3.035134 0.243752,-3.726272 0.07776,-0.309805 0.49183,-0.389281 3.608059,-0.692522 3.070771,-0.298818 2.985412,-0.28436 2.985412,-0.505704 0,-0.696104 1.164729,-3.554501 1.991662,-4.887799 l 0.281689,-0.454178 -0.706087,-0.847246 c -1.771524,-2.125683 -3.201509,-3.886852 -3.296002,-4.059354 -0.247128,-0.4511466 2.750659,-3.6865851 4.895842,-5.2839618 0.07604,-0.056625 1.078788,0.6913351 2.583529,1.927088 1.352587,1.1107973 2.51903,2.0436889 2.592094,2.0730927 0.07307,0.029404 0.332314,-0.072457 0.576106,-0.2263565 0.838823,-0.5295261 3.24616,-1.5766154 4.195809,-1.824999 0.523182,-0.1368399 0.967105,-0.2597958 0.986496,-0.2732353 0.01939,-0.013439 0.08308,-0.6889001 0.141537,-1.5010237 0.05846,-0.8121235 0.193288,-2.2613733 0.299628,-3.2205551 l 0.193346,-1.74396698 0.75594,-0.0932095 c 0.975577,-0.12029133 4.894099,-0.11951363 5.88025,0.001167 l 0.761016,0.0931296 0.126233,0.99707048 c 0.06943,0.5483888 0.205981,1.8237999 0.303454,2.8342469 0.09747,1.010447 0.20334,2.0446065 0.235262,2.2981322 l 0.05804,0.4609558 0.944313,0.2598409 c 0.519373,0.1429125 1.729514,0.6512911 2.689203,1.1297304 l 1.744889,0.8698895 1.412758,-1.1971093 C 78.429871,7.3068312 79.559453,6.37705 80.163037,5.8990607 l 1.097426,-0.8690712 0.911986,0.740742 c 1.134,0.9210681 2.832503,2.5925418 3.718723,3.6595448 l 0.671396,0.8083567 -1.892154,2.291878 c -1.040685,1.260534 -1.967994,2.40309 -2.060687,2.539015 -0.155932,0.228658 -0.117513,0.348854 0.513822,1.607529 0.62284,1.241737 1.069314,2.420494 1.390392,3.670838 0.143064,0.557125 -0.201058,0.481873 3.909789,0.854988 1.484094,0.134701 2.710747,0.256426 2.725895,0.270499 0.01515,0.01407 0.07884,0.512674 0.14154,1.108003 0.225914,2.145091 0.07618,6.234647 -0.235314,6.427163 -0.06359,0.0393 -1.495648,0.190507 -3.182344,0.336008 -1.737916,0.149921 -3.121292,0.319831 -3.192668,0.392133 -0.06927,0.07017 -0.219771,0.489279 -0.334441,0.93135 -0.227143,0.875671 -0.706933,2.059085 -1.360505,3.355722 -0.229989,0.456282 -0.418163,0.87589 -0.418163,0.932462 0,0.05657 0.650444,0.871674 1.445432,1.811337 0.794986,0.939663 1.729647,2.055699 2.077023,2.480081 l 0.631592,0.771603 -0.717441,0.878001 c -1.004939,1.229841 -3.240047,3.52747 -3.909617,4.01898 l -0.560772,0.411645 -1.212101,-0.949152 c -0.666656,-0.522033 -1.808707,-1.456565 -2.537892,-2.076739 -0.729184,-0.620173 -1.354637,-1.127588 -1.389896,-1.127588 -0.03526,0 -0.301509,0.152341 -0.591669,0.338537 -0.920383,0.590609 -2.669574,1.358466 -3.818088,1.676061 l -1.110487,0.307078 -0.06541,0.532809 c -0.03598,0.293045 -0.17552,1.747068 -0.310099,3.231162 -0.13458,1.484095 -0.262178,2.717834 -0.283553,2.741645 -0.217711,0.242525 -5.033164,0.423799 -6.572271,0.247408 z m 5.099351,-16.081563 c 3.261081,-0.833987 5.861036,-3.400366 6.727538,-6.640656 0.336255,-1.257431 0.333772,-3.50998 -0.0053,-4.781657 -0.64247,-2.409763 -2.242387,-4.476737 -4.489855,-5.800554 -2.573008,-1.515569 -6.559178,-1.506069 -9.170584,0.02186 -0.357787,0.20934 -1.199976,0.92597 -1.871532,1.592513 -1.112315,1.104011 -1.272568,1.318727 -1.800176,2.411981 -0.795521,1.648389 -0.983072,2.584415 -0.915934,4.571223 0.04617,1.366323 0.09745,1.69423 0.401702,2.568601 1.048667,3.013719 3.548024,5.342895 6.517156,6.073404 1.189644,0.292693 3.428872,0.284569 4.606954,-0.01671 z"
   id="path69" /><path
   style="fill:#800000;stroke-width:0.114824"
   d="m 64.563598,32.789727 c -1.528691,-0.400491 -3.011859,-1.383074 -4.073411,-2.69859 -0.680875,-0.843766 -1.02412,-1.44731 -1.426596,-2.508452 -0.285539,-0.752832 -0.310502,-0.952504 -0.310502,-2.483589 0,-1.534535 0.02453,-1.729649 0.313202,-2.491075 0.802367,-2.116405 2.157157,-3.635217 4.082134,-4.576351 1.202264,-0.587794 2.196544,-0.779165 3.713363,-0.714716 1.97143,0.08376 3.495833,0.713692 4.955518,2.047761 1.695124,1.549247 2.48313,3.369019 2.48313,5.734381 0,2.436462 -0.773842,4.164666 -2.632636,5.879407 -1.926896,1.777567 -4.615877,2.463126 -7.104202,1.811224 z m 2.847426,-1.710522 c 1.503859,-0.248149 3.055414,-1.202178 3.96535,-2.438239 1.235901,-1.678853 1.424823,-4.328481 0.447864,-6.281307 -0.810245,-1.619585 -2.553898,-2.85123 -4.44192,-3.13759 -3.093024,-0.469124 -6.051976,1.563727 -6.695548,4.599959 -0.205507,0.969533 -0.203421,1.594307 0.0087,2.595535 0.258542,1.22056 0.674294,1.959265 1.654194,2.939166 0.96433,0.964331 1.72088,1.396632 2.886503,1.649383 0.896497,0.194395 1.347843,0.209563 2.174896,0.07309 z"
   id="path71" /></svg>
